<svg height="40" version="1.1" viewBox="8 8 24 24" width="40" xmlns="http://www.w3.org/2000/svg">
<g fill="none" fill-rule="evenodd" stroke="none" stroke-width="40">

<g fill="#000" transform="translate(11.5 9)">
<path d="M13.45,1.84030569e-12 C15.2725397,1.83997089e-12 16.75,1.47746033 16.75,3.3 L16.75,18.7 C16.75,20.5225397 15.2725397,22 13.45,22 L3.55,22 C1.72746033,22 0.25,20.5225397 0.25,18.7 L0.25,3.3 C0.25,1.47746033 1.72746033,1.84197275e-12 3.55,1.84030569e-12 L13.45,1.84030569e-12 Z M8.5,18.7 C7.89248678,18.7 7.4,19.1924868 7.4,19.8 C7.4,20.4075132 7.89248678,20.9 8.5,20.9 C9.10751322,20.9 9.6,20.4075132 9.6,19.8 C9.6,19.1924868 9.10751322,18.7 8.5,18.7 Z M4.94501695,2.2 L3.9625,2.2 C3.12716932,2.2 2.45,2.87716932 2.45,3.7125 L2.45,3.7125 L2.45,16.0435374 C2.45,16.903148 3.14685204,17.6 4.00646259,17.6 L4.00646259,17.6 L12.9935374,17.6 C13.853148,17.6 14.55,16.903148 14.55,16.0435374 L14.55,16.0435374 L14.55,3.7125 C14.55,2.87716932 13.8728307,2.2 13.0375,2.2 L13.0375,2.2 L12.0251993,2.2 C11.7204892,2.2 11.4438104,2.37783219 11.3172597,2.65502013 L11.3172597,2.65502013 L11.2694872,2.75965783 C11.1138345,3.10058868 10.7735298,3.31931567 10.3987478,3.31931567 L10.3987478,3.31931567 L6.51714276,3.31931567 C6.15424331,3.31931567 5.82827809,3.09733019 5.69533678,2.75965783 L5.69533678,2.75965783 L5.6691492,2.69314108 C5.55200831,2.39560194 5.26478488,2.2 4.94501695,2.2 L4.94501695,2.2 Z"></path>
<path d="M3.94734295,2.2 L4.9298599,2.2 C5.24962782,2.2 5.53685126,2.39560194 5.65399215,2.69314108 L5.68017973,2.75965783 C5.81312103,3.09733019 6.13908626,3.31931567 6.50198571,3.31931567 L10.3835907,3.31931567 C10.7583728,3.31931567 11.0986775,3.10058868 11.2543301,2.75965783 L11.3021027,2.65502013 C11.4286533,2.37783219 11.7053322,2.2 12.0100423,2.2 L13.0223429,2.2 C13.8576736,2.2 14.5348429,2.87716932 14.5348429,3.7125 L14.5348429,16.0435374 C14.5348429,16.903148 13.8379909,17.6 12.9783804,17.6 L3.99130553,17.6 C3.13169498,17.6 2.43484295,16.903148 2.43484295,16.0435374 L2.43484295,3.7125 C2.43484295,2.87716932 3.11201226,2.2 3.94734295,2.2 Z" fill-opacity=".6"></path>
<path d="M11.6179851,5.12011991 C11.9509981,5.31238509 12.0650968,5.73820724 11.8728317,6.0712203 L10.1984577,8.97072333 L10.805689,8.97116162 C11.1902193,8.97116162 11.5019428,9.28288507 11.5019428,9.66741542 C11.5019428,10.0519458 11.1902193,10.3636692 10.805689,10.3636692 L9.18045766,10.3627233 L9.18045766,11.2917233 L10.805689,11.2920076 C11.1902193,11.2920076 11.5019428,11.6037311 11.5019428,11.9882614 C11.5019428,12.3727918 11.1902193,12.6845153 10.805689,12.6845153 L9.18045766,12.6837233 L9.18109675,14.0770229 C9.18109675,14.4615532 8.86937331,14.7732767 8.48484295,14.7732767 C8.10031259,14.7732767 7.78858914,14.4615532 7.78858914,14.0770229 L7.78845766,12.6837233 L6.16399693,12.6845153 C5.77946657,12.6845153 5.46774312,12.3727918 5.46774312,11.9882614 C5.46774312,11.6037311 5.77946657,11.2920076 6.16399693,11.2920076 L7.78845766,11.2917233 L7.78845766,10.3627233 L6.16399693,10.3636692 C5.77946657,10.3636692 5.46774312,10.0519458 5.46774312,9.66741542 C5.46774312,9.28288507 5.77946657,8.97116162 6.16399693,8.97116162 L6.77045766,8.97072333 L5.09685424,6.0712203 C4.90458906,5.73820724 5.01868776,5.31238509 5.35170082,5.12011991 C5.68471388,4.92785473 6.11053603,5.04195343 6.30280121,5.37496649 L8.37845766,8.97072333 L8.59045766,8.97072333 L10.6668847,5.37496649 C10.8591499,5.04195343 11.284972,4.92785473 11.6179851,5.12011991 Z"></path>
</g>
</g>
</svg>
