<svg height="40" version="1.1" viewBox="8 8 24 24" width="40" xmlns="http://www.w3.org/2000/svg" xmlns:xlink="http://www.w3.org/1999/xlink">
<defs>
<path d="M18.6169225,0 L19.3691136,13.6768147 C19.4329805,14.837764 18.5436195,15.8306738 17.3826702,15.8945407 C17.3441595,15.8966592 17.3055979,15.8977191 17.2670289,15.8977191 L2.76818562,15.8977191 C1.60548088,15.8977191 0.662922458,14.9551607 0.662922458,13.792456 C0.662922458,13.753887 0.663982347,13.7153254 0.666100923,13.6768147 L1.41792246,0 L18.6169225,0 Z M12.8714227,3.64410054 C12.6580296,4.98868401 11.4432574,6.00312119 9.99064296,6.00312119 C8.54263542,6.00312119 7.3272688,4.98719069 7.11082059,3.64308363 C7.02763602,3.12652144 6.54144522,2.77519946 6.02488303,2.85838402 C5.50832084,2.94156859 5.15699886,3.4277594 5.24018343,3.94432159 C5.60571593,6.21421706 7.61987047,7.89785803 9.99064296,7.89785803 C12.3663788,7.89785803 14.3818996,6.21472824 14.7427392,3.9410892 C14.8247504,3.42433942 14.4723251,2.93894778 13.9555753,2.85693662 C13.4388255,2.77492547 12.9534339,3.12735076 12.8714227,3.64410054 Z" id="uxs-a"></path>
<path d="M15.4600009,-3.04964929 C17.1366621,-3.04964929 18.5210296,-1.7393463 18.6131279,-0.0652164602 L18.6168947,-0.000649287796 L1.41789474,-0.000649287796 L1.42208663,-0.0652164602 C1.51418496,-1.7393463 2.89855245,-3.04964929 4.57521367,-3.04964929 L15.4600009,-3.04964929 Z" id="uxs-b"></path>
</defs>
<g fill="none" fill-rule="evenodd" stroke="none" stroke-width="40">

<g transform="translate(10 13.5)">
<use fill="#000" fill-rule="nonzero" xlink:href="#uxs-a"></use>
<use fill="#000" fill-opacity=".6" fill-rule="nonzero" xlink:href="#uxs-b"></use>
</g>
</g>
</svg>
