<svg height="40" version="1.1" viewBox="8 8 24 24" width="40" xmlns="http://www.w3.org/2000/svg">
<g fill="none" fill-rule="evenodd" stroke="none" stroke-width="40">

<g fill="#000" transform="translate(9.5 12)">
<path d="M19.25,7.28306304e-14 C20.7080317,7.21187051e-14 21.89,1.18196826 21.89,2.64 L21.89,9.483 L21.8881284,9.30904264 L12.5764625,9.30904264 L12.5366151,9.31008926 C11.9455724,9.34132546 11.6576719,10.0644195 12.0834483,10.4932652 L12.0834483,10.4932652 L13.9607666,12.3841163 L13.9939991,12.415491 C14.2660243,12.6560919 14.6818736,12.6471669 14.9432665,12.3876449 L14.9432665,12.3876449 L14.9746412,12.3544124 C15.2152421,12.0823871 15.2063171,11.6665378 14.946795,11.4051449 L14.946795,11.4051449 L14.2452204,10.6985163 L21.89,10.698 L21.89,13.2 C21.89,14.6580317 20.7080317,15.84 19.25,15.84 L2.64,15.84 C1.18196826,15.84 -2.90699875e-13,14.6580317 -2.91322522e-13,13.2 L-2.91322522e-13,2.64 C-2.91501079e-13,1.18196826 1.18196826,7.35425557e-14 2.64,7.28306304e-14 L19.25,7.28306304e-14 Z M8.85014968,3.67948824 L8.78914099,3.76788182 L6.82060755,7.17677162 L6.61960755,7.17677162 L4.65229452,3.76788182 C4.47004055,3.45220869 4.06639089,3.34405109 3.75071776,3.52630505 C3.46661194,3.69033362 3.3505937,4.03369271 3.46309425,4.33084996 L3.50914099,4.42788182 L5.09560755,7.17677162 L4.52071776,7.17682374 C4.15620982,7.17682374 3.86071776,7.4723158 3.86071776,7.83682374 C3.86071776,8.16819459 4.10492607,8.44252753 4.42318779,8.48966764 L4.52071776,8.49682374 L6.06060755,8.49677162 L6.06060755,9.37677162 L4.52071776,9.37682374 C4.15620982,9.37682374 3.86071776,9.6723158 3.86071776,10.0368237 C3.86071776,10.3681946 4.10492607,10.6425275 4.42318779,10.6896676 L4.52071776,10.6968237 L6.06060755,10.6967716 L6.06071776,12.0168237 C6.06071776,12.3813317 6.35620982,12.6768237 6.72071776,12.6768237 C7.05208861,12.6768237 7.32642155,12.4326154 7.37356166,12.1143537 L7.38071776,12.0168237 L7.38060755,10.6967716 L8.92071776,10.6968237 C9.28522569,10.6968237 9.58071776,10.4013317 9.58071776,10.0368237 C9.58071776,9.70545289 9.33650944,9.43111994 9.01824772,9.38397983 L8.92071776,9.37682374 L7.38060755,9.37677162 L7.38060755,8.49677162 L8.92071776,8.49682374 C9.28522569,8.49682374 9.58071776,8.20133167 9.58071776,7.83682374 C9.58071776,7.50545289 9.33650944,7.23111994 9.01824772,7.18397983 L8.92071776,7.17682374 L8.34460755,7.17677162 L9.93229452,4.42788182 C10.1145485,4.11220869 10.0063909,3.70855902 9.69071776,3.52630505 C9.40661194,3.36227648 9.05124512,3.43348128 8.85014968,3.67948824 Z"></path>
<path d="M21.9011739,10.6985163 L14.2452204,10.6985163 L14.946795,11.4051449 C15.2063171,11.6665378 15.2152421,12.0823871 14.9746412,12.3544124 L14.9432665,12.3876449 C14.6818736,12.6471669 14.2660243,12.6560919 13.9939991,12.415491 L13.9607666,12.3841163 L12.0834483,10.4932652 C11.6576719,10.0644195 11.9455724,9.34132546 12.5366151,9.31008926 L12.5764625,9.30904264 L21.8881284,9.30904264 L21.9011739,10.6985163 Z" fill-opacity=".6" fill-rule="nonzero"></path>
</g>
</g>
</svg>
