<svg height="40" version="1.1" viewBox="8 8 24 24" width="40" xmlns="http://www.w3.org/2000/svg">
<g fill="none" fill-rule="evenodd" stroke="none" stroke-width="40">

<g fill="#000" transform="translate(11.5 9.5)">
<path d="M0.198483717,2.14338462 C1.99945144,3.71766082 5.00121528,4.74852052 8.4,4.74852052 C11.9243019,4.74852052 15.0217175,3.64011556 16.7960921,1.9667716 L16.795,1.9677716 L16.8,2.1 L16.8,18.9 C16.8,20.0093022 15.9397106,20.9178221 14.8499647,20.9947269 L14.7,21 L2.1,21 C0.990697826,21 0.0821778828,20.1397106 0.00527312813,19.0499647 L9.09494702e-13,18.9 L9.09494702e-13,2.1 L0.004,1.9677716 Z M11.1902918,7.65493328 L11.1306365,7.74388149 L8.781,11.811 L8.543,11.811 L6.1946265,7.74388149 C5.97716438,7.36722605 5.49553693,7.23817437 5.11888149,7.45563649 C4.77361401,7.65497676 4.63640245,8.07628929 4.78343276,8.43524434 L4.83063649,8.53138149 L6.724,11.811 L6.03763149,11.811369 C5.60270725,11.811369 5.25013149,12.1639448 5.25013149,12.598869 C5.25013149,12.9975496 5.54639307,13.3270345 5.93077241,13.3791801 L6.03763149,13.386369 L7.875,13.386 L7.875,14.436 L6.03763149,14.436369 C5.60270725,14.436369 5.25013149,14.7889448 5.25013149,15.223869 C5.25013149,15.6225496 5.54639307,15.9520345 5.93077241,16.0041801 L6.03763149,16.011369 L7.875,16.011 L7.87513149,17.586369 C7.87513149,18.0212932 8.22770725,18.373869 8.66263149,18.373869 C9.06131205,18.373869 9.390797,18.0776074 9.44294255,17.6932281 L9.45013149,17.586369 L9.45,16.011 L11.2876315,16.011369 C11.7225557,16.011369 12.0751315,15.6587932 12.0751315,15.223869 C12.0751315,14.8251885 11.7788699,14.4957035 11.3944906,14.443558 L11.2876315,14.436369 L9.45,14.436 L9.45,13.386 L11.2876315,13.386369 C11.7225557,13.386369 12.0751315,13.0337932 12.0751315,12.598869 C12.0751315,12.2001885 11.7788699,11.8707035 11.3944906,11.818558 L11.2876315,11.811369 L10.6,11.811 L12.4946265,8.53138149 C12.7120886,8.15472605 12.5830369,7.67309861 12.2063815,7.45563649 C11.861114,7.25629621 11.4276409,7.34812378 11.1902918,7.65493328 Z"></path>
<path d="M14.7,-4.54747351e-13 C15.8093022,-4.54747351e-13 16.7178221,0.860049244 16.7947269,1.95000396 L16.7960921,1.9667716 C15.0217175,3.64011556 11.9243019,4.74852052 8.4,4.74852052 C4.87533437,4.74852052 1.77764317,3.63988677 0.00335857618,1.96625352 L0,2.1 C0,0.990446739 0.860289414,0.0821560491 1.95003528,0.0052717042 L2.1,-4.54747351e-13 L14.7,-4.54747351e-13 Z" fill-opacity=".6"></path>
</g>
</g>
</svg>
