<svg height="40" version="1.1" viewBox="8 8 24 24" width="40" xmlns="http://www.w3.org/2000/svg">
<g fill="none" fill-rule="evenodd" stroke="none" stroke-width="40">

<g fill="#000" transform="translate(7.5 8.5)">
<path d="M9.40909091,0 L12.9229493,0 C14.0777265,-2.12129131e-16 15.0138584,0.936131887 15.0138584,2.09090909 L15.0138584,19.26021 C15.0138584,19.529467 14.9099722,19.7883421 14.7238419,19.9829053 L11.9214582,22.9122552 C11.5223246,23.3294721 10.8605417,23.3441315 10.4433248,22.944998 C10.4321701,22.9343268 10.4212532,22.9234098 10.410582,22.9122552 L7.60819828,19.9829053 C7.42206799,19.7883421 7.31818182,19.529467 7.31818182,19.26021 L7.31818182,2.09090909 C7.31818182,0.936131887 8.2543137,-1.1201385e-15 9.40909091,0 Z" transform="rotate(45 11.166 11.851)"></path>
<rect fill-opacity=".6" height="2.091" rx="1.045" width="6.273" x="18.052" y="13.504"></rect>
<rect fill-opacity=".6" height="2.091" rx="1.045" width="10.745" x="13.58" y="17.995"></rect>
</g>
</g>
</svg>
