<svg height="40" version="1.1" viewBox="8 8 24 24" width="40" xmlns="http://www.w3.org/2000/svg">
<g fill="none" fill-rule="evenodd" stroke="none" stroke-width="40">

<g fill="#000" transform="translate(11.5 9.5)">
<path d="M7.8656331,0.237528447 C12.5694441,4.23423251 12.1347036,7.38307496 11.925368,8.26536694 L11.9025194,8.35703049 C11.8742022,8.46562176 11.856103,8.5192754 11.8677537,8.51282547 C12.7226354,8.51282547 14.2896545,5.5664142 14.2841982,5.48756162 C15.0219403,6.44791881 15.8131696,7.88062002 16.6578861,9.78566525 L16.6518296,9.78576752 C17.1288993,10.8605572 17.3935613,12.0509807 17.3935613,13.3032194 C17.3935613,18.1063187 13.4998799,22 8.69678063,22 C3.89368132,22 -3.92168837e-12,18.1063187 -3.92168837e-12,13.3032194 C-3.92168837e-12,11.0698144 0.841883961,9.03304192 2.22561483,7.49293904 L2.2572431,7.43687493 C3.7361996,6.0265586 5.34540247,3.62677644 7.08485172,0.237528447 C7.29905485,-0.079176149 7.55931531,-0.079176149 7.8656331,0.237528447 Z M8.43753468,11.0978905 C8.31129462,10.9673698 8.20403576,10.9673698 8.11575811,11.0978905 C7.39889418,12.4946715 6.73570754,13.4836726 6.12619819,14.0648939 L6.12619819,14.0648939 L6.11428845,14.0867477 C5.54335499,14.7216046 5.19594043,15.5615002 5.19594043,16.4825389 C5.19594043,18.461998 6.80060909,20.0666667 8.78006821,20.0666667 C10.7595273,20.0666667 12.364196,18.461998 12.364196,16.4825389 C12.364196,15.9663814 12.2550879,15.4757074 12.0569575,15.0329486 L12.0569575,15.0329486 C11.7128831,14.2477707 11.3868007,13.6573241 11.0827615,13.2615405 C11.0850102,13.2940374 10.4392084,14.508316 10.0868935,14.508316 C10.0496817,14.5289166 10.7488712,13.0617721 8.43753468,11.0978905 Z"></path>
<path d="M8.11575811,11.0978905 C8.20403576,10.9673698 8.31129462,10.9673698 8.43753468,11.0978905 C10.7488712,13.0617721 10.0496817,14.5289166 10.0868935,14.508316 C10.4392084,14.508316 11.0850102,13.2940374 11.0827615,13.2615405 C11.3868007,13.6573241 11.7128831,14.2477707 12.0610087,15.0328802 C12.059658,15.0329031 12.0583076,15.0329258 12.0569575,15.0329486 C12.2550879,15.4757074 12.364196,15.9663814 12.364196,16.4825389 C12.364196,18.461998 10.7595273,20.0666667 8.78006821,20.0666667 C6.80060909,20.0666667 5.19594043,18.461998 5.19594043,16.4825389 C5.19594043,15.5615002 5.54335499,14.7216046 6.11428845,14.0867477 L6.12619819,14.0648939 C6.73570754,13.4836726 7.39889418,12.4946715 8.11575811,11.0978905 Z" fill-opacity=".6"></path>
</g>
</g>
</svg>
