<svg height="40" version="1.1" viewbox="0 0 40 40" width="40" xmlns="http://www.w3.org/2000/svg">
    <g fill="#000" fill-rule="evenodd" stroke="none" stroke-width="1" transform="translate(6 7)">
        <path d="M18.8722296,-2.29717817e-13 C20.6552671,-2.28820133e-13 21.3018396,0.185651222 21.9536914,0.534265408 C22.6055433,0.882879593 23.1171204,1.39445674 23.4657346,2.04630859 C23.8143488,2.69816044 24,3.34473292 24,5.1277704 L24,20.5483326 C24,22.3313701 23.8143488,22.9779425 23.4657346,23.6297944 C23.1171204,24.2816463 22.6055433,24.7932234 21.9536914,25.1418376 C21.3018396,25.4904518 20.6552671,25.676103 18.8722296,25.676103 L5.1277704,25.676103 C3.34473292,25.676103 2.69816044,25.4904518 2.04630859,25.1418376 C1.39445674,24.7932234 0.882879593,24.2816463 0.534265408,23.6297944 C0.185651222,22.9779425 -1.24583987e-15,22.3313701 -2.68942168e-15,20.5483326 L-1.41153626e-15,5.1277704 C-1.9883281e-15,3.34473292 0.185651222,2.69816044 0.534265408,2.04630859 C0.882879593,1.39445674 1.39445674,0.882879593 2.04630859,0.534265408 C2.69816044,0.185651222 3.34473292,-2.29161386e-13 5.1277704,-2.29130492e-13 L18.8722296,-2.29717817e-13 Z M4.94630564,14.8131363 C4.17310699,14.8131363 3.54630564,15.4399377 3.54630564,16.2131363 C3.54630564,16.986335 4.17310699,17.6131363 4.94630564,17.6131363 C5.71950429,17.6131363 6.34630564,16.986335 6.34630564,16.2131363 C6.34630564,15.4399377 5.71950429,14.8131363 4.94630564,14.8131363 Z M15.4963175,14.9131363 L9.34630564,14.9131363 C8.62833547,14.9131363 8.04630564,15.4951662 8.04630564,16.2131363 C8.04630564,16.9311065 8.62833547,17.5131363 9.34630564,17.5131363 L9.34630564,17.5131363 L15.4963175,17.5131363 C16.2142876,17.5131363 16.7963175,16.9311065 16.7963175,16.2131363 C16.7963175,15.4951662 16.2142876,14.9131363 15.4963175,14.9131363 L15.4963175,14.9131363 Z M4.94630564,7.90033938 C4.17310699,7.90033938 3.54630564,8.52714073 3.54630564,9.30033938 C3.54630564,10.073538 4.17310699,10.7003394 4.94630564,10.7003394 C5.71950429,10.7003394 6.34630564,10.073538 6.34630564,9.30033938 C6.34630564,8.52714073 5.71950429,7.90033938 4.94630564,7.90033938 Z M15.4963175,8.00033938 L9.34630564,8.00033938 C8.62833547,8.00033938 8.04630564,8.58236921 8.04630564,9.30033938 C8.04630564,10.0183096 8.62833547,10.6003394 9.34630564,10.6003394 L9.34630564,10.6003394 L15.4963175,10.6003394 C16.2142876,10.6003394 16.7963175,10.0183096 16.7963175,9.30033938 C16.7963175,8.58236921 16.2142876,8.00033938 15.4963175,8.00033938 L15.4963175,8.00033938 Z"></path>
        <path d="M23.6319029,6.7487825 L24.3680971,6.7487825 C25.5560936,6.7487825 26.3018396,6.93443372 26.9536914,7.28304791 C27.6055433,7.63166209 28.1171204,8.14323924 28.4657346,8.79509109 C28.8143488,9.44694295 29,10.1926889 29,11.3806854 L29,20.0442001 C29,21.2321966 28.8143488,21.9779425 28.4657346,22.6297944 C28.1171204,23.2816463 27.6055433,23.7932234 26.9536914,24.1418376 C26.3018396,24.4904518 25.5560936,24.676103 24.3680971,24.676103 L23.6319029,24.676103 C22.4439064,24.676103 21.6981604,24.4904518 21.0463086,24.1418376 C20.3944567,23.7932234 19.8828796,23.2816463 19.5342654,22.6297944 C19.1856512,21.9779425 19,21.2321966 19,20.0442001 L19,11.3806854 C19,10.1926889 19.1856512,9.44694295 19.5342654,8.79509109 C19.8828796,8.14323924 20.3944567,7.63166209 21.0463086,7.28304791 C21.6981604,6.93443372 22.4439064,6.7487825 23.6319029,6.7487825 Z"
              opacity=".6" style="mix-blend-mode:multiply"></path>
    </g>
</svg>
