<svg xmlns="http://www.w3.org/2000/svg" width="40" height="40" version="1.1" viewBox="8 8 24 24">
  <g fill="none" fill-rule="evenodd" stroke="none" stroke-width="1">
    <g fill="#000" transform="translate(8.5 12)">
      <path d="M19.125,1.59872116e-14 C20.988961,1.56448075e-14 22.5,1.51103897 22.5,3.375 L22.5,11.8125 C22.5,13.676461 20.988961,15.1875 19.125,15.1875 L3.375,15.1875 C1.51103897,15.1875 6.72358601e-16,13.676461 0,11.8125 L0,3.375 C-2.28269391e-16,1.51103897 1.51103897,1.63296156e-14 3.375,1.59872116e-14 L19.125,1.59872116e-14 Z M11.25,3.375 C10.7840097,3.375 10.40625,3.75275974 10.40625,4.21875 L10.40625,4.21875 L10.40625,6.75 L7.875,6.75 L7.82542328,6.75143232 C7.38250874,6.77709538 7.03125,7.14440225 7.03125,7.59375 C7.03125,8.05974026 7.40900974,8.4375 7.875,8.4375 L7.875,8.4375 L10.40625,8.437 L10.40625,10.96875 L10.4076823,11.0183267 C10.4333454,11.4612413 10.8006523,11.8125 11.25,11.8125 C11.7159903,11.8125 12.09375,11.4347403 12.09375,10.96875 L12.09375,10.96875 L12.09325,8.437 L14.625,8.4375 L14.6745767,8.43606768 C15.1174913,8.41040462 15.46875,8.04309775 15.46875,7.59375 C15.46875,7.12775974 15.0909903,6.75 14.625,6.75 L14.625,6.75 L12.09325,6.75 L12.09375,4.21875 L12.0923177,4.16917328 C12.0666546,3.72625874 11.6993477,3.375 11.25,3.375 Z"/>
      <path fill-opacity=".6" d="M8.15625,15.1875 L14.34375,15.1875 L12.0234375,17.1645292 C11.5962798,17.5284903 10.9037202,17.5284903 10.4765625,17.1645292 L8.15625,15.1875 Z"/>
    </g>
  </g>
</svg>
