<svg height="24" version="1.1" viewbox="0 0 24 24" width="24" xmlns="http://www.w3.org/2000/svg" xmlns:xlink="http://www.w3.org/1999/xlink">
<defs>
<path d="M11.1384873,0 C11.3749477,0 11.6099301,0.0372742553 11.8347829,0.110450395 C13.0164235,0.495003806 13.6625903,1.76465493 13.2780369,2.94629555 L13.2780369,2.94629555 L11.6430405,7.97024839 C11.4922903,8.43346753 11.2188863,8.8313637 10.8658163,9.13271997 C10.9106243,9.27197061 10.9296874,9.42172183 10.9202306,9.57632041 L10.9202306,9.57632041 L10.2894985,19.8873767 C10.2168848,21.0744496 9.23298803,22 8.04369633,22 L8.04369633,22 L5.33186415,22 C4.13997041,22 3.15486679,21.0705276 3.08566026,19.8806448 L3.08566026,19.8806448 L2.48400871,9.5 C2.48400871,9.38817672 2.49869224,9.27978296 2.52623637,9.17664164 C2.14140021,8.86700447 1.84432432,8.44418208 1.6877946,7.94787495 L1.6877946,7.94787495 L0.104192272,2.92676376 C0.0351375557,2.70781271 -8.06466005e-13,2.47958249 -8.06466005e-13,2.25 C-8.06466005e-13,1.00735931 1.00735931,0 2.25,0 L2.25,0 Z M4.12058898,9.74987786 L3.99808247,9.749 L4.58312952,19.7935483 C4.60619837,20.1901759 4.93456624,20.5 5.33186415,20.5 L5.33186415,20.5 L8.04369633,20.5 C8.44012689,20.5 8.76809247,20.1914832 8.79229707,19.7957922 L8.79229707,19.7957922 L9.40608247,9.75 L4.14579409,9.75 C4.13738505,9.75 4.12898328,9.74995923 4.12058898,9.74987786 Z M6.70408247,11 C7.53250959,11 8.20408247,11.6715729 8.20408247,12.5 L8.20408247,14 C8.20408247,14.8284271 7.53250959,15.5 6.70408247,15.5 C5.87565535,15.5 5.20408247,14.8284271 5.20408247,14 L5.20408247,12.5 C5.20408247,11.6715729 5.87565535,11 6.70408247,11 Z M6.70408247,12.75 C6.3243867,12.75 6.01059151,13.0321539 5.96092909,13.3982294 L5.95408247,13.5 L5.95408247,14 C5.95408247,14.4142136 6.28986891,14.75 6.70408247,14.75 C7.08377824,14.75 7.39757343,14.4678461 7.44723585,14.1017706 L7.45408247,14 L7.45408247,13.5 C7.45408247,13.0857864 7.11829603,12.75 6.70408247,12.75 Z M11.1384873,1.5 L2.25,1.5 C1.83578644,1.5 1.5,1.83578644 1.5,2.25 C1.5,2.3265275 1.51171252,2.40260424 1.53473076,2.47558792 L1.53473076,2.47558792 L3.11833308,7.4966991 C3.25975301,7.94509779 3.67562287,8.25 4.14579409,8.25 L4.14579409,8.25 L9.19220959,8.25 C9.65875927,8.25 10.0722934,7.94969855 10.2166741,7.50605136 L10.2166741,7.50605136 L11.8516705,2.48209852 C11.979855,2.08821831 11.764466,1.66500127 11.3705858,1.5368168 C11.2956349,1.51242475 11.2173074,1.5 11.1384873,1.5 L11.1384873,1.5 Z" id="uxs-a"></path>
</defs>
<g fill="none" fill-rule="evenodd" stroke="none" stroke-width="1" transform="translate(5.296 1)">
<mask fill="#fff" id="uxs-b">
<use xlink:href="#uxs-a"></use>
</mask>
<g fill-opacity=".9" mask="url(#uxs-b)">
<rect fill="#000" height="24" transform="translate(-5.296 -1)" width="24" x="0" y="0"></rect>
</g>
</g>
</svg>
