<svg height="144" version="1.1" viewbox="0 0 144 144" width="144" xmlns="http://www.w3.org/2000/svg">
<path d="M91,77 C98.7319865,77 105,83.2680135 105,91 C105,98.7319865 98.7319865,105 91,105 C83.2680135,105 77,98.7319865 77,91 C77,83.2680135 83.2680135,77 91,77 Z M53,77 C60.7319865,77 67,83.2680135 67,91 C67,98.7319865 60.7319865,105 53,105 C45.2680135,105 39,98.7319865 39,91 C39,83.2680135 45.2680135,77 53,77 Z M91,39 C98.7319865,39 105,45.2680135 105,53 C105,60.7319865 98.7319865,67 91,67 C83.2680135,67 77,60.7319865 77,53 C77,45.2680135 83.2680135,39 91,39 Z M53,39 C60.7319865,39 67,45.2680135 67,53 C67,60.7319865 60.7319865,67 53,67 C45.2680135,67 39,60.7319865 39,53 C39,45.2680135 45.2680135,39 53,39 Z" fill="#000" fill-rule="evenodd" stroke="none" stroke-width="1"></path>
</svg>
