<svg height="40" version="1.1" viewBox="8 8 24 24" width="40" xmlns="http://www.w3.org/2000/svg">
<g fill="none" fill-rule="evenodd" stroke="none" stroke-width="40">

<g fill="#000" fill-rule="nonzero" transform="translate(11.5 9)">
<path d="M13.0688271,12.6025299 C13.3076222,12.3657603 13.6947856,12.3390378 13.9335808,12.5475435 L13.9335808,12.5475435 L16.2948698,14.7490619 C16.5336649,14.9858314 16.5336649,15.3735209 16.2948698,15.6102904 L16.2948698,15.6102904 L13.9335808,17.8118088 C13.8189073,17.9122607 13.6633767,17.9622669 13.5012039,17.9512939 C13.1634966,17.9284438 12.8897308,17.6584881 12.8897308,17.348331 L12.8897308,17.348331 L12.888916,16.5936552 L1.60320169,16.5940046 C0.822113257,16.5940046 0.188915975,15.9608073 0.188915975,15.1797189 C0.188915975,14.4445768 0.749810453,13.8404387 1.46699654,13.7719074 L1.60320169,13.7654332 L12.888916,13.7646552 L12.8897308,13.0110214 C12.8897308,12.8918672 12.9309614,12.7741032 13.0061665,12.6740213 Z" fill-opacity=".6"></path>
<path d="M8.92131102,10.86795 L8.92208941,19.6403793 C8.92208941,20.4214677 8.28889213,21.054665 7.5078037,21.054665 C6.77266165,21.054665 6.16852352,20.4937705 6.09999219,19.7765844 L6.09351798,19.6403793 L6.09331102,10.86795 L8.92131102,10.86795 Z M13.6175222,1.07219067 C14.1448682,1.57554979 14.1981734,2.38895517 13.7644552,2.95454896 L13.6640565,3.0717513 L8.92131102,8.03894998 L8.92131102,8.03994998 L6.09331102,8.03894998 L6.09331102,7.99894998 L1.35562562,3.07600241 C0.813964445,2.5132393 0.831070941,1.61792653 1.39383405,1.07626536 C1.91907961,0.570714927 2.73401289,0.551913224 3.28072683,1.00920047 L3.3935711,1.11447378 L7.52364598,5.4067619 L11.6179616,1.11872489 C12.157275,0.553711397 13.0525088,0.532877315 13.6175222,1.07219067 Z" transform="translate(.824)"></path>
<path d="M3.59405496,0.195874633 C3.70872842,0.308652807 3.7731513,0.455423446 3.7731513,0.604366137 L3.77291597,1.358 L15.0596804,1.35877795 C15.8407688,1.35877795 16.4739661,1.99197523 16.4739661,2.77306367 C16.4739661,3.50820572 15.9130716,4.11234385 15.1958856,4.18087518 L15.0596804,4.18734938 L3.77291597,4.187 L3.7731513,4.94167575 C3.7731513,5.25183285 3.49938545,5.52178854 3.16167815,5.54463865 C2.99950539,5.55561166 2.8439748,5.50560553 2.72930134,5.40515357 L0.368012315,3.20363523 C0.129217195,2.96686567 0.129217195,2.57917621 0.368012315,2.34240666 L2.72930134,0.140888319 C2.96809646,-0.0676174284 3.35525984,-0.0408949176 3.59405496,0.195874633 Z" fill-opacity=".6" transform="translate(0 6.681)"></path>
</g>
</g>
</svg>
