<svg xmlns="http://www.w3.org/2000/svg" width="40" height="40" version="1.1" viewBox="8 8 24 24">
  <g fill="none" fill-rule="evenodd" stroke="none" stroke-width="1">
    <g fill="#000" transform="translate(9.5 9.86)">
      <path fill-opacity=".6" fill-rule="nonzero" d="M18.9157222,16.1481401 C18.8633997,16.1367585 18.8100195,16.1310118 18.7564854,16.1309973 L2.2376569,16.1309973 C1.83054393,16.1309973 1.49958159,15.7983835 1.49958159,15.389239 C1.49958159,14.9800946 1.83054393,14.6474808 2.2376569,14.6474808 L4.49874477,14.6474808 C4.91319163,14.6474808 5.24853556,14.3104635 5.24853556,13.8939486 C5.24853556,13.4774337 4.91319163,13.1404164 4.49874477,13.1404164 L2.2376569,13.1404164 C1.00312636,13.1404164 0,14.1493018 0,15.389239 C0,16.5773944 0.921141423,17.5532186 2.08427782,17.6326927 C2.13561506,17.6438309 2.18885021,17.6498356 2.24351464,17.6498356 L18.7623431,17.6498356 C19.1694561,17.6498356 19.5004184,17.9824494 19.5004184,18.3915938 C19.5004184,18.8007382 19.1694561,19.1333521 18.7623431,19.1333521 L4.50460251,19.1333521 C4.09015565,19.1333521 3.75481172,19.4703693 3.75481172,19.8868842 C3.75481172,20.3033992 4.09015565,20.6404164 4.50460251,20.6404164 L18.7623431,20.6404164 C19.9968736,20.6404164 21,19.631531 21,18.3915938 C21,17.2034384 20.0788586,16.2276142 18.9157222,16.1481401 Z"/>
      <path d="M10.357475,7.10542736e-15 C13.6009461,7.10542736e-15 16.228348,2.63778017 16.228348,5.88926017 C16.228348,6.72574223 15.8895385,7.77262177 15.2963944,8.94973905 L15.1743995,9.18687526 L15.0509844,9.41717828 L14.8377359,9.79646733 L14.6168444,10.1682676 L14.4985164,10.3596236 L14.2662591,10.7216435 L14.1407011,10.9101401 L13.8991988,11.2601134 L13.7693393,11.4414816 L13.516612,11.7818356 L13.2693477,12.0989496 C12.1843088,13.4555189 11.2416985,14.259703 10.357475,14.259703 C9.5774279,14.259703 8.77829294,13.6497132 7.85090461,12.584562 L7.70339314,12.4126203 L7.56531545,12.2466508 L7.31446256,11.9327538 L7.18757723,11.7677683 L7.0579378,11.594823 L6.80784733,11.2488251 L6.56204244,10.8920118 L6.32201122,10.5263244 L6.09370027,10.161064 L5.97613159,9.96535764 L5.75725649,9.58582068 L5.54958672,9.20392541 L5.36112353,8.83459006 C4.80401239,7.70398591 4.48660198,6.70084484 4.48660198,5.88926017 C4.48660198,2.63778017 7.11400386,7.10542736e-15 10.357475,7.10542736e-15 Z M10.357475,4.05489186 C9.35453629,4.05489186 8.54149384,4.86793431 8.54149384,5.870873 C8.54149384,6.87381169 9.35453629,7.68685414 10.357475,7.68685414 C11.3604137,7.68685414 12.1734561,6.87381169 12.1734561,5.870873 C12.1734561,4.86793431 11.3604137,4.05489186 10.357475,4.05489186 Z"/>
    </g>
  </g>
</svg>
