<svg height="40" version="1.1" viewbox="0 0 40 40" width="40" xmlns="http://www.w3.org/2000/svg">
    <g fill="#000" fill-rule="evenodd" stroke="none" stroke-width="1" transform="translate(2 7)">
        <path d="M3.995414,0.0269667667 C6.38618316,0.0269667667 8.43649153,1.71813798 8.89959886,4.0527297 L8.92076334,4.16619157 L10.9368749,17.0316501 C11.0522463,17.6918045 11.6096453,18.1796588 12.2726883,18.2125189 L12.3441176,18.2142857 L26.4285714,18.2142857 C27.4147942,18.2142857 28.2142857,19.0137772 28.2142857,20 C28.2142857,20.9862228 27.4147942,21.7857143 26.4285714,21.7857143 L12.3441176,21.7857143 L12.3441176,21.7857143 C9.95334839,21.7857143 7.90304002,20.0945431 7.43993269,17.7599514 L7.41876822,17.6464895 L5.40265667,4.781031 C5.28728525,4.12087659 4.7298863,3.6330223 4.06684326,3.60016214 L3.995414,3.59839534 L1.78571429,3.59839534 C0.799491518,3.59839534 1.20777456e-16,2.79890382 0,1.81268105 C-1.20777456e-16,0.826458285 0.799491518,0.0269667667 1.78571429,0.0269667667 L3.995414,0.0269667667 L3.995414,0.0269667667 Z"
              style="mix-blend-mode:multiply"></path>
        <path d="M7.82920582,4.11211918 L27.3289912,3.91835996 C28.5124001,3.90660104 29.4812751,4.85641102 29.493034,6.03981992 C29.4938461,6.12154968 29.4899815,6.20325897 29.4814591,6.28454723 L28.6890532,13.8426738 C28.5790939,14.8914871 27.7223833,15.7043905 26.6692468,15.759199 L9.34845937,16.6606258 C8.26094482,16.7172234 7.30392144,15.949157 7.12376062,14.8751769 L5.7371686,6.60938271 C5.54137694,5.44222354 6.32882589,4.33733359 7.49598506,4.14154192 C7.60612226,4.12306634 7.71753523,4.11322879 7.82920582,4.11211918 Z"
              style="mix-blend-mode:multiply"></path>
        <circle cx="10.916" cy="24.696" r="2.143" style="mix-blend-mode:multiply"></circle>
        <circle cx="24.971" cy="24.696" r="2.143" style="mix-blend-mode:multiply"></circle>
    </g>
</svg>
