<svg height="40" version="1.1" viewBox="8 8 24 24" width="40" xmlns="http://www.w3.org/2000/svg">
<g fill="none" fill-rule="evenodd" stroke="none" stroke-width="40">

<rect height="40" width="40" x="8" y="8"></rect>
<g fill="#000" transform="translate(9 11.222)">
<path d="M22,4.4 L22,14.3 C22,16.1225397 20.5225397,17.6 18.7,17.6 L3.3,17.6 C1.47746033,17.6 1.11137516e-15,16.1225397 0,14.3 L0,4.4 L22,4.4 Z M15.8657015,8.87623179 L6.35277005,8.87623179 L6.30319289,8.87754006 C5.56783271,8.91658532 5.20963432,9.82045288 5.73937441,10.35651 L5.73937441,10.35651 L8.07508566,12.7200739 L8.11643268,12.7592922 C8.45487952,13.0600434 8.97226856,13.0488871 9.29748686,12.7244846 L9.29748686,12.7244846 L9.33652239,12.6829439 C9.63587186,12.3429124 9.62476764,11.8231007 9.30187694,11.4963596 L9.30187694,11.4963596 L8.4289958,10.6130739 L15.8657015,10.6130739 L15.91649,10.6115997 C16.3702307,10.5851863 16.7300753,10.2071394 16.7300753,9.74465284 C16.7300753,9.26503714 16.343082,8.87623179 15.8657015,8.87623179 L15.8657015,8.87623179 Z"></path>
<path d="M18.7,0 C20.5225397,-7.78884317e-16 22,1.47746033 22,3.3 L22,4.4 L0,4.4 L0,3.3 C-6.67285948e-16,1.47746033 1.47746033,1.22297353e-15 3.3,0 L18.7,0 Z" fill-opacity=".6"></path>
</g>
</g>
</svg>
